<svg version="1.1" xmlns="http://www.w3.org/2000/svg" viewBox="0 0 277.94614313023834 144.22511412444885" width="555.8922862604767" height="288.4502282488977">
  <!-- svg-source:excalidraw -->
  
  <defs>
    <style class="style-fonts">
      @font-face {
        font-family: "Virgil";
        src: url("https://excalidraw.com/Virgil.woff2");
      }
      @font-face {
        font-family: "Cascadia";
        src: url("https://excalidraw.com/Cascadia.woff2");
      }
    </style>
  </defs>
  <rect x="0" y="0" width="277.94614313023834" height="144.22511412444885" fill="#ffffff"></rect><g transform="translate(136.38270472323308 36.33107627254799) rotate(0 19.779991149902344 12)"><text x="0" y="0" font-family="Virgil, Segoe UI Emoji" font-size="20px" fill="#000000" text-anchor="start" style="white-space: pre;" direction="ltr" dominant-baseline="text-before-edge">LDL</text></g><g transform="translate(10 33.292001146877965) rotate(0 19.29998779296875 12)"><text x="0" y="0" font-family="Virgil, Segoe UI Emoji" font-size="20px" fill="#000000" text-anchor="start" style="white-space: pre;" direction="ltr" dominant-baseline="text-before-edge">HDL</text></g><g transform="translate(53.331886744353994 107.69534286872056) rotate(0 40 12)"><text x="0" y="0" font-family="Virgil, Segoe UI Emoji" font-size="20px" fill="#000000" text-anchor="start" style="white-space: pre;" direction="ltr" dominant-baseline="text-before-edge">甘油三酯</text></g><g stroke-linecap="round"><g transform="translate(95.78292693458349 101.81008502416591) rotate(0 -1.8514553571433794 -25.16268107986133)"><path d="M1.12 1.19 C0.46 -7.25, -2.75 -42.75, -3.61 -51.52 M0.25 0.78 C-0.64 -7.44, -4.52 -41.78, -4.82 -50.31" stroke="#000000" stroke-width="1" fill="none"></path></g><g transform="translate(95.78292693458349 101.81008502416591) rotate(0 -1.8514553571433794 -25.16268107986133)"><path d="M7.77 -27.98 C1.44 -36.09, -1.89 -43.23, -6.69 -51.9 M6.34 -27.51 C3.14 -34.72, 0.08 -40.53, -4.71 -50.51" stroke="#000000" stroke-width="1" fill="none"></path></g><g transform="translate(95.78292693458349 101.81008502416591) rotate(0 -1.8514553571433794 -25.16268107986133)"><path d="M-9.61 -26.58 C-10.26 -35.32, -7.92 -42.9, -6.69 -51.9 M-11.05 -26.12 C-9.1 -33.59, -7.02 -39.82, -4.71 -50.51" stroke="#000000" stroke-width="1" fill="none"></path></g></g><mask></mask><g transform="translate(207.94614313023834 110.22511412444885) rotate(0 30 12)"><text x="0" y="0" font-family="Virgil, Segoe UI Emoji" font-size="20px" fill="#000000" text-anchor="start" style="white-space: pre;" direction="ltr" dominant-baseline="text-before-edge">胆固醇</text></g><g stroke-linecap="round"><g transform="translate(232.9456459010607 106.5263103865044) rotate(0 -9.034659768400786 -26.223175510519866)"><path d="M0.39 -0.15 C-2.68 -8.52, -14.63 -41.94, -17.38 -50.45 M-0.86 -1.28 C-4.21 -9.98, -15.88 -44.17, -18.46 -52.29" stroke="#000000" stroke-width="1" fill="none"></path></g><g transform="translate(232.9456459010607 106.5263103865044) rotate(0 -9.034659768400786 -26.223175510519866)"><path d="M-2.02 -31.62 C-7.32 -37.63, -15.06 -49.31, -16.93 -53.91 M-1.33 -30.54 C-4.89 -36.45, -9.88 -41.06, -17.68 -53.04" stroke="#000000" stroke-width="1" fill="none"></path></g><g transform="translate(232.9456459010607 106.5263103865044) rotate(0 -9.034659768400786 -26.223175510519866)"><path d="M-19.48 -25.81 C-17.97 -34.14, -18.93 -48.08, -16.93 -53.91 M-18.79 -24.74 C-17.96 -32.23, -18.58 -38.29, -17.68 -53.04" stroke="#000000" stroke-width="1" fill="none"></path></g></g><mask></mask><g transform="translate(10.204236114256389 10) rotate(0 17.17999267578125 12)"><text x="0" y="0" font-family="Virgil, Segoe UI Emoji" font-size="20px" fill="#000000" text-anchor="start" style="white-space: pre;" direction="ltr" dominant-baseline="text-before-edge">&gt;1.0</text></g><g transform="translate(147.0010842502865 10) rotate(0 22.089981079101562 12)"><text x="0" y="0" font-family="Virgil, Segoe UI Emoji" font-size="20px" fill="#000000" text-anchor="start" style="white-space: pre;" direction="ltr" dominant-baseline="text-before-edge">&lt;2.5</text></g><g transform="translate(80.28228295012872 10) rotate(0 17.67998504638672 12)"><text x="0" y="0" font-family="Virgil, Segoe UI Emoji" font-size="20px" fill="#000000" text-anchor="start" style="white-space: pre;" direction="ltr" dominant-baseline="text-before-edge">&lt;1.5</text></g><g transform="translate(210.83301434034132 10) rotate(0 21.369979858398438 12)"><text x="0" y="0" font-family="Virgil, Segoe UI Emoji" font-size="20px" fill="#000000" text-anchor="start" style="white-space: pre;" direction="ltr" dominant-baseline="text-before-edge">&lt;4.5</text></g></svg>